M48
; DRILL file {KiCad 8.0.7-5-g6f92c4cccf} date 2025-01-08T11:04:39+0800
; FORMAT={-:-/ absolute / metric / decimal}
; #@! TF.CreationDate,2025-01-08T11:04:39+08:00
; #@! TF.GenerationSoftware,Kicad,Pcbnew,8.0.7-5-g6f92c4cccf
; #@! TF.FileFunction,Plated,1,2,PTH
FMAT,2
METRIC
; #@! TA.AperFunction,Plated,PTH,ViaDrill
T1C0.300
; #@! TA.AperFunction,Plated,PTH,ViaDrill
T2C0.400
; #@! TA.AperFunction,Plated,PTH,ViaDrill
T3C0.500
; #@! TA.AperFunction,Plated,PTH,ComponentDrill
T4C0.600
; #@! TA.AperFunction,Plated,PTH,ComponentDrill
T5C1.000
%
G90
G05
T1
X-2.08Y-4.71
X-2.08Y-15.6
X-1.08Y-4.71
X-1.08Y-15.6
X-0.08Y-4.71
X-0.08Y-15.6
X0.92Y-4.71
X0.92Y-15.6
X1.92Y-4.71
X1.92Y-15.6
X2.57Y-9.4
X2.57Y-10.4
X9.55Y-9.8
X9.56Y-10.55
X9.56Y-12.71
X9.56Y-13.46
X12.16Y-13.73
X14.21Y-13.21
X14.75Y-10.15
X15.1Y-7.3
X15.468Y-9.45
X15.468Y-10.15
X15.468Y-10.85
X15.58Y-13.54
X15.94Y-3.48
X15.97Y-14.27
X16.2Y-10.15
X16.21Y-7.3
X17.32Y-7.3
X17.54Y-11.11
X17.945Y-3.48
X18.39Y-16.98
X18.665Y-13.7
X18.671Y-12.999
X19.69Y-10.15
X20.16Y-16.98
X20.348Y-3.48
X20.69Y-10.15
X21.378Y-14.583
X22.433Y-3.477
X22.82Y-16.98
X23.808Y-3.48
X25.85Y-11.38
X25.85Y-13.91
X29.06Y-2.19
T2
X7.97Y-4.95
X11.87Y-1.33
X11.87Y-6.68
X13.35Y-11.2
X13.35Y-15.25
X13.9Y-5.28
X17.45Y-8.65
X18.7Y-6.58
X18.7Y-9.34
X19.82Y-12.449
T3
X4.64Y-7.74
X5.05Y-12.55
T5
X3.361Y-18.94
X5.901Y-18.94
X8.441Y-18.94
X14.57Y-1.33
X17.11Y-1.33
X17.12Y-18.94
X19.65Y-1.33
X19.66Y-18.94
X22.19Y-1.33
X22.2Y-18.94
X29.06Y-5.065
X29.06Y-7.605
X29.06Y-10.145
X29.06Y-12.685
X29.06Y-15.225
T4
G00X-1.119Y-5.825
M15
G01X-2.019Y-5.825
M16
G05
G00X-1.119Y-14.475
M15
G01X-2.019Y-14.475
M16
G05
G00X3.231Y-5.825
M15
G01X2.031Y-5.825
M16
G05
G00X3.231Y-14.475
M15
G01X2.031Y-14.475
M16
G05
M30
