%TF.GenerationSoftware,KiCad,Pcbnew,8.0.7-5-g6f92c4cccf*%
%TF.CreationDate,2025-01-08T11:04:30+08:00*%
%TF.ProjectId,UINIO-USB-UART-CH343,55494e49-4f2d-4555-9342-2d554152542d,Version 5.0.0*%
%TF.SameCoordinates,PX8be9df0PY5020b20*%
%TF.FileFunction,Copper,L2,Bot*%
%TF.FilePolarity,Positive*%
%FSLAX46Y46*%
G04 Gerber Fmt 4.6, Leading zero omitted, Abs format (unit mm)*
G04 Created by KiCad (PCBNEW 8.0.7-5-g6f92c4cccf) date 2025-01-08 11:04:30*
%MOMM*%
%LPD*%
G01*
G04 APERTURE LIST*
%TA.AperFunction,ComponentPad*%
%ADD10R,1.700000X1.700000*%
%TD*%
%TA.AperFunction,ComponentPad*%
%ADD11O,1.700000X1.700000*%
%TD*%
%TA.AperFunction,ComponentPad*%
%ADD12O,2.100000X1.000000*%
%TD*%
%TA.AperFunction,ComponentPad*%
%ADD13O,1.900000X1.000000*%
%TD*%
%TA.AperFunction,ViaPad*%
%ADD14C,0.500000*%
%TD*%
%TA.AperFunction,ViaPad*%
%ADD15C,0.700000*%
%TD*%
%TA.AperFunction,ViaPad*%
%ADD16C,0.900000*%
%TD*%
%TA.AperFunction,Conductor*%
%ADD17C,0.400000*%
%TD*%
%TA.AperFunction,Conductor*%
%ADD18C,0.300000*%
%TD*%
%TA.AperFunction,Conductor*%
%ADD19C,0.500000*%
%TD*%
%TA.AperFunction,Conductor*%
%ADD20C,0.200000*%
%TD*%
%TA.AperFunction,Conductor*%
%ADD21C,0.700000*%
%TD*%
G04 APERTURE END LIST*
D10*
%TO.P,J7,1,Pin_1*%
%TO.N,/CH343_VDD_3.3V*%
X3361320Y-18940000D03*
D11*
%TO.P,J7,2,Pin_2*%
%TO.N,/CH343_VIO*%
X5901320Y-18940000D03*
%TO.P,J7,3,Pin_3*%
%TO.N,/CH343_VDD_5V*%
X8441320Y-18940000D03*
%TD*%
D12*
%TO.P,USB1,13,GND*%
%TO.N,GND*%
X2631320Y-5825000D03*
%TO.P,USB1,14,GND*%
X2631320Y-14475000D03*
D13*
%TO.P,USB1,15,GND*%
X-1568680Y-5825000D03*
%TO.P,USB1,16,GND*%
X-1568680Y-14475000D03*
%TD*%
D10*
%TO.P,J5,1,Pin_1*%
%TO.N,/CH343_VDD_5V*%
X29060000Y-15225000D03*
D11*
%TO.P,J5,2,Pin_2*%
%TO.N,/CH343_TXD*%
X29060000Y-12685000D03*
%TO.P,J5,3,Pin_3*%
%TO.N,/CH343_RXD*%
X29060000Y-10145000D03*
%TO.P,J5,4,Pin_4*%
%TO.N,GND*%
X29060000Y-7605000D03*
%TO.P,J5,5,Pin_5*%
%TO.N,/CH343_VDD_3.3V*%
X29060000Y-5065000D03*
%TD*%
D10*
%TO.P,J4,1,Pin_1*%
%TO.N,/CH343_ACT#*%
X17120000Y-18940000D03*
D11*
%TO.P,J4,2,Pin_2*%
%TO.N,/CH343_DCD*%
X19660000Y-18940000D03*
%TO.P,J4,3,Pin_3*%
%TO.N,/CH343_DTR*%
X22200000Y-18940000D03*
%TD*%
D10*
%TO.P,J6,1,Pin_1*%
%TO.N,/CH343_RI*%
X14570000Y-1330000D03*
D11*
%TO.P,J6,2,Pin_2*%
%TO.N,/CH343_CTS*%
X17110000Y-1330000D03*
%TO.P,J6,3,Pin_3*%
%TO.N,/CH343_DSR*%
X19650000Y-1330000D03*
%TO.P,J6,4,Pin_4*%
%TO.N,/CH343_RTS*%
X22190000Y-1330000D03*
%TD*%
D14*
%TO.N,GND*%
X15580000Y-13540000D03*
X14210000Y-13210000D03*
X12160000Y-13730000D03*
X15970000Y-14270000D03*
D15*
%TO.N,/CH343_VDD_5V*%
X13350000Y-15250000D03*
D14*
%TO.N,GND*%
X15468500Y-9450000D03*
X15468500Y-10850000D03*
X14750000Y-10150000D03*
X16200000Y-10150000D03*
X25850000Y-11380000D03*
X25850000Y-13910000D03*
X-1080000Y-4710000D03*
X23808337Y-3480000D03*
X-80000Y-15600000D03*
D15*
X13900000Y-5280000D03*
D14*
X920000Y-4710000D03*
X1920000Y-4710000D03*
X22820000Y-16980000D03*
X-1080000Y-15600000D03*
X17320000Y-7300000D03*
X9560000Y-13460000D03*
X9550000Y-9800000D03*
X29060000Y-2190000D03*
X-80000Y-4710000D03*
X20347986Y-3480000D03*
X15468500Y-10150000D03*
X20690000Y-10150000D03*
X15940000Y-3480000D03*
X16210000Y-7300000D03*
X15100000Y-7300000D03*
X9560000Y-10550000D03*
X-2080000Y-15600000D03*
X-2080000Y-4710000D03*
X9560000Y-12710000D03*
X920000Y-15600000D03*
X17944653Y-3480000D03*
X1920000Y-15600000D03*
X22433199Y-3476801D03*
X19690000Y-10150000D03*
D15*
%TO.N,/CH343_VDD_5V*%
X17450000Y-8650000D03*
D16*
X4640000Y-7740000D03*
D15*
X13350000Y-11200000D03*
D16*
X5050000Y-12550000D03*
D15*
%TO.N,/CH343_V3*%
X11870000Y-6680000D03*
X11870000Y-1330000D03*
%TO.N,/CH343_VDD_3.3V*%
X7970000Y-4950000D03*
%TO.N,/CH343_VIO*%
X19820000Y-12448999D03*
X18700000Y-9340000D03*
X18700000Y-6580000D03*
D14*
%TO.N,/CH343_DSR*%
X18664946Y-13700000D03*
%TO.N,/CH343_RTS*%
X21378160Y-14583160D03*
%TO.N,/CH343_CTS*%
X18671053Y-12998999D03*
%TO.N,/CH343_USB_Data_N*%
X2570000Y-9400000D03*
X2570000Y-10400000D03*
%TO.N,/CH343_RI*%
X17540000Y-11110000D03*
%TO.N,GND*%
X18390000Y-16980000D03*
X20160000Y-16980000D03*
%TD*%
D17*
%TO.N,/CH343_VDD_5V*%
X13350000Y-8650000D02*
X13350000Y-11200000D01*
X17450000Y-8650000D02*
X13350000Y-8650000D01*
D18*
%TO.N,GND*%
X18050000Y-10050000D02*
X18150000Y-10150000D01*
X18050000Y-8030000D02*
X18050000Y-10050000D01*
X17320000Y-7300000D02*
X18050000Y-8030000D01*
D19*
X18150000Y-10150000D02*
X20690000Y-10150000D01*
X15468500Y-10150000D02*
X18150000Y-10150000D01*
D20*
X22820000Y-16980000D02*
X18390000Y-16980000D01*
D21*
%TO.N,/CH343_VDD_5V*%
X4640000Y-7740000D02*
X4640000Y-12540000D01*
D18*
%TO.N,/CH343_V3*%
X11870000Y-6680000D02*
X11870000Y-1330000D01*
%TO.N,/CH343_VDD_3.3V*%
X7970000Y-14331320D02*
X3361320Y-18940000D01*
X7970000Y-4950000D02*
X7970000Y-14331320D01*
%TO.N,/CH343_VIO*%
X18700000Y-6580000D02*
X18700000Y-9340000D01*
X19820000Y-12448999D02*
X19818999Y-12450000D01*
X12391320Y-12450000D02*
X5901320Y-18940000D01*
X19818999Y-12450000D02*
X12391320Y-12450000D01*
D20*
%TO.N,/CH343_DSR*%
X18664946Y-13700000D02*
X21421320Y-13700000D01*
X22611320Y-4291320D02*
X19650000Y-1330000D01*
X22611320Y-12510000D02*
X22611320Y-4291320D01*
X21421320Y-13700000D02*
X22611320Y-12510000D01*
%TO.N,/CH343_RTS*%
X22911320Y-2051320D02*
X22190000Y-1330000D01*
X22911320Y-13050000D02*
X22911320Y-2051320D01*
X21378160Y-14583160D02*
X22911320Y-13050000D01*
%TO.N,/CH343_CTS*%
X22311320Y-11850000D02*
X22311320Y-6531320D01*
X18671053Y-12998999D02*
X21162321Y-12998999D01*
X22311320Y-6531320D02*
X17110000Y-1330000D01*
X21162321Y-12998999D02*
X22311320Y-11850000D01*
%TO.N,/CH343_USB_Data_N*%
X2570000Y-10400000D02*
X2570000Y-9400000D01*
%TO.N,/CH343_RI*%
X17540000Y-11110000D02*
X21551320Y-11110000D01*
X22011320Y-8771320D02*
X14570000Y-1330000D01*
X21551320Y-11110000D02*
X22011320Y-10650000D01*
X22011320Y-10650000D02*
X22011320Y-8771320D01*
%TD*%
%TA.AperFunction,Conductor*%
%TO.N,GND*%
G36*
X13370607Y-270185D02*
G01*
X13416362Y-322989D01*
X13426306Y-392147D01*
X13423219Y-407050D01*
X13422415Y-410001D01*
X13419500Y-435131D01*
X13419500Y-2224856D01*
X13419502Y-2224882D01*
X13422413Y-2249987D01*
X13422415Y-2249991D01*
X13467793Y-2352764D01*
X13467794Y-2352765D01*
X13547235Y-2432206D01*
X13650009Y-2477585D01*
X13675135Y-2480500D01*
X14124668Y-2480499D01*
X14169497Y-2488886D01*
X14683120Y-2688046D01*
X15767022Y-3108334D01*
X15809873Y-3136266D01*
X17189078Y-4515471D01*
X18462109Y-5788501D01*
X18495594Y-5849824D01*
X18490610Y-5919516D01*
X18448738Y-5975449D01*
X18432054Y-5985978D01*
X18327762Y-6040714D01*
X18209516Y-6145471D01*
X18119781Y-6275475D01*
X18119780Y-6275476D01*
X18063762Y-6423181D01*
X18044722Y-6579999D01*
X18044722Y-6580000D01*
X18063762Y-6736814D01*
X18063764Y-6736823D01*
X18079900Y-6779370D01*
X18087175Y-6809426D01*
X18087639Y-6813537D01*
X18087640Y-6813545D01*
X18244064Y-7324307D01*
X18249500Y-7360618D01*
X18249500Y-8265228D01*
X18229815Y-8332267D01*
X18177011Y-8378022D01*
X18107853Y-8387966D01*
X18044297Y-8358941D01*
X18023450Y-8335668D01*
X17974828Y-8265228D01*
X17940483Y-8215470D01*
X17822240Y-8110717D01*
X17822238Y-8110716D01*
X17822237Y-8110715D01*
X17682365Y-8037303D01*
X17528986Y-7999500D01*
X17528985Y-7999500D01*
X17371015Y-7999500D01*
X17371014Y-7999500D01*
X17217634Y-8037303D01*
X17077766Y-8110712D01*
X17077762Y-8110715D01*
X17077760Y-8110717D01*
X17069181Y-8118316D01*
X17005950Y-8148037D01*
X16986956Y-8149500D01*
X13284108Y-8149500D01*
X13156812Y-8183608D01*
X13042686Y-8249500D01*
X13042683Y-8249502D01*
X12949502Y-8342683D01*
X12949500Y-8342686D01*
X12883608Y-8456812D01*
X12849500Y-8584108D01*
X12849500Y-10741342D01*
X12829815Y-10808381D01*
X12827550Y-10811782D01*
X12769781Y-10895475D01*
X12769780Y-10895476D01*
X12713762Y-11043181D01*
X12694722Y-11199999D01*
X12694722Y-11200000D01*
X12713762Y-11356818D01*
X12761696Y-11483207D01*
X12769780Y-11504523D01*
X12859517Y-11634530D01*
X12977760Y-11739283D01*
X13014580Y-11758608D01*
X13028100Y-11765704D01*
X13078312Y-11814289D01*
X13094286Y-11882308D01*
X13070950Y-11948166D01*
X13015714Y-11990952D01*
X12970473Y-11999500D01*
X12332011Y-11999500D01*
X12241645Y-12023713D01*
X12241644Y-12023712D01*
X12217436Y-12030199D01*
X12217433Y-12030200D01*
X12114706Y-12089511D01*
X12114703Y-12089513D01*
X6859281Y-17344934D01*
X6814411Y-17373628D01*
X5481974Y-17863789D01*
X5475945Y-17866080D01*
X5475414Y-17866288D01*
X5463949Y-17871058D01*
X5463932Y-17871067D01*
X5460337Y-17873524D01*
X5435181Y-17886765D01*
X5386299Y-17905702D01*
X5366570Y-17917918D01*
X5299209Y-17936471D01*
X5232510Y-17915662D01*
X5187650Y-17862095D01*
X5178871Y-17792779D01*
X5208962Y-17729721D01*
X5213595Y-17724827D01*
X8330490Y-14607934D01*
X8382925Y-14517114D01*
X8389798Y-14505209D01*
X8389798Y-14505208D01*
X8389799Y-14505207D01*
X8398795Y-14471632D01*
X8420500Y-14390629D01*
X8420500Y-5475759D01*
X8440185Y-5408720D01*
X8455846Y-5390444D01*
X8455509Y-5390145D01*
X8460481Y-5384532D01*
X8460481Y-5384531D01*
X8460483Y-5384530D01*
X8550220Y-5254523D01*
X8606237Y-5106818D01*
X8625278Y-4950000D01*
X8613463Y-4852689D01*
X8606237Y-4793181D01*
X8551029Y-4647611D01*
X8550220Y-4645477D01*
X8460483Y-4515470D01*
X8342240Y-4410717D01*
X8342238Y-4410716D01*
X8342237Y-4410715D01*
X8202365Y-4337303D01*
X8048986Y-4299500D01*
X8048985Y-4299500D01*
X7891015Y-4299500D01*
X7891014Y-4299500D01*
X7737634Y-4337303D01*
X7597762Y-4410715D01*
X7479516Y-4515471D01*
X7389781Y-4645475D01*
X7389780Y-4645476D01*
X7333762Y-4793181D01*
X7314722Y-4949999D01*
X7314722Y-4950000D01*
X7333762Y-5106818D01*
X7389780Y-5254523D01*
X7389781Y-5254524D01*
X7479518Y-5384532D01*
X7484491Y-5390145D01*
X7483044Y-5391426D01*
X7514850Y-5442120D01*
X7519500Y-5475759D01*
X7519500Y-14093354D01*
X7499815Y-14160393D01*
X7483181Y-14181035D01*
X4562477Y-17101738D01*
X4522488Y-17128519D01*
X2959026Y-17779962D01*
X2911334Y-17789500D01*
X2466463Y-17789500D01*
X2466437Y-17789502D01*
X2441332Y-17792413D01*
X2441328Y-17792415D01*
X2338555Y-17837793D01*
X2259114Y-17917234D01*
X2213735Y-18020006D01*
X2213735Y-18020008D01*
X2210820Y-18045131D01*
X2210820Y-19834856D01*
X2210822Y-19834882D01*
X2213733Y-19859986D01*
X2213734Y-19859990D01*
X2213735Y-19859991D01*
X2220545Y-19875414D01*
X2229617Y-19944690D01*
X2199795Y-20007876D01*
X2140546Y-20044907D01*
X2107111Y-20049500D01*
X933315Y-20049500D01*
X866276Y-20029815D01*
X820521Y-19977011D01*
X810577Y-19907853D01*
X839602Y-19844297D01*
X855060Y-19829312D01*
X1077053Y-19648708D01*
X1273189Y-19438698D01*
X1438901Y-19203936D01*
X1571104Y-18948797D01*
X1667334Y-18678032D01*
X1725798Y-18396686D01*
X1745408Y-18110000D01*
X1725798Y-17823314D01*
X1667334Y-17541968D01*
X1571105Y-17271206D01*
X1571106Y-17271206D01*
X1438901Y-17016064D01*
X1273187Y-16781299D01*
X1194554Y-16697105D01*
X1077053Y-16571292D01*
X854147Y-16389945D01*
X854146Y-16389944D01*
X608617Y-16240634D01*
X345063Y-16126158D01*
X345061Y-16126157D01*
X345058Y-16126156D01*
X215578Y-16089877D01*
X68364Y-16048630D01*
X68359Y-16048629D01*
X68358Y-16048629D01*
X-73982Y-16029064D01*
X-216321Y-16009500D01*
X-216322Y-16009500D01*
X-503678Y-16009500D01*
X-503679Y-16009500D01*
X-788358Y-16048629D01*
X-788365Y-16048630D01*
X-996139Y-16106845D01*
X-1065058Y-16126156D01*
X-1065061Y-16126156D01*
X-1065064Y-16126158D01*
X-1065065Y-16126158D01*
X-1328618Y-16240634D01*
X-1574147Y-16389944D01*
X-1797050Y-16571289D01*
X-1993188Y-16781299D01*
X-2158902Y-17016064D01*
X-2291106Y-17271206D01*
X-2387333Y-17541962D01*
X-2387334Y-17541965D01*
X-2445799Y-17823319D01*
X-2465408Y-18110000D01*
X-2445799Y-18396680D01*
X-2445799Y-18396684D01*
X-2445798Y-18396686D01*
X-2424525Y-18499056D01*
X-2405068Y-18592691D01*
X-2410702Y-18662333D01*
X-2453093Y-18717874D01*
X-2518782Y-18741680D01*
X-2586913Y-18726193D01*
X-2635003Y-18677900D01*
X-2733851Y-18499049D01*
X-2739880Y-18486527D01*
X-2852541Y-18214537D01*
X-2857134Y-18201413D01*
X-2912957Y-18007648D01*
X-2938638Y-17918508D01*
X-2941731Y-17904953D01*
X-2947071Y-17873524D01*
X-2991047Y-17614703D01*
X-2992603Y-17600892D01*
X-2999934Y-17470351D01*
X-3009305Y-17303471D01*
X-3009500Y-17296519D01*
X-3009500Y-12970817D01*
X1605820Y-12970817D01*
X1605820Y-13109183D01*
X1638315Y-13230454D01*
X1641632Y-13242835D01*
X1641633Y-13242838D01*
X1710812Y-13362661D01*
X1710814Y-13362664D01*
X1710815Y-13362665D01*
X1808655Y-13460505D01*
X1808656Y-13460506D01*
X1808658Y-13460507D01*
X1813681Y-13463407D01*
X1928484Y-13529688D01*
X2062137Y-13565500D01*
X2062139Y-13565500D01*
X2200501Y-13565500D01*
X2200503Y-13565500D01*
X2334156Y-13529688D01*
X2453985Y-13460505D01*
X2551825Y-13362665D01*
X2621008Y-13242836D01*
X2656820Y-13109183D01*
X2656820Y-12970817D01*
X2621008Y-12837164D01*
X2586416Y-12777249D01*
X2551827Y-12717338D01*
X2551823Y-12717333D01*
X2453986Y-12619496D01*
X2453981Y-12619492D01*
X2334158Y-12550313D01*
X2334157Y-12550312D01*
X2334156Y-12550312D01*
X2200503Y-12514500D01*
X2062137Y-12514500D01*
X1928484Y-12550312D01*
X1928481Y-12550313D01*
X1808658Y-12619492D01*
X1808653Y-12619496D01*
X1710816Y-12717333D01*
X1710812Y-12717338D01*
X1641633Y-12837161D01*
X1641632Y-12837164D01*
X1605820Y-12970817D01*
X-3009500Y-12970817D01*
X-3009500Y-9399999D01*
X2014750Y-9399999D01*
X2014750Y-9400000D01*
X2033670Y-9543708D01*
X2033671Y-9543713D01*
X2043010Y-9566261D01*
X2051423Y-9597807D01*
X2051712Y-9600044D01*
X2051715Y-9600059D01*
X2136494Y-9861789D01*
X2138426Y-9931632D01*
X2136494Y-9938211D01*
X2051714Y-10199946D01*
X2051713Y-10199948D01*
X2051234Y-10203409D01*
X2042970Y-10233837D01*
X2033670Y-10256289D01*
X2014750Y-10399999D01*
X2014750Y-10400000D01*
X2033670Y-10543708D01*
X2033671Y-10543712D01*
X2089137Y-10677622D01*
X2089138Y-10677624D01*
X2089139Y-10677625D01*
X2177379Y-10792621D01*
X2292375Y-10880861D01*
X2426291Y-10936330D01*
X2553280Y-10953048D01*
X2569999Y-10955250D01*
X2570000Y-10955250D01*
X2570001Y-10955250D01*
X2584977Y-10953278D01*
X2713709Y-10936330D01*
X2847625Y-10880861D01*
X2962621Y-10792621D01*
X3050861Y-10677625D01*
X3106330Y-10543709D01*
X3125250Y-10400000D01*
X3106330Y-10256291D01*
X3096989Y-10233741D01*
X3088571Y-10202162D01*
X3088285Y-10199947D01*
X3088285Y-10199946D01*
X3003502Y-9938208D01*
X3001571Y-9868368D01*
X3003496Y-9861809D01*
X3088285Y-9600053D01*
X3088762Y-9596603D01*
X3097029Y-9566161D01*
X3106330Y-9543709D01*
X3125250Y-9400000D01*
X3106330Y-9256291D01*
X3062511Y-9150500D01*
X3050862Y-9122377D01*
X3050861Y-9122376D01*
X3050861Y-9122375D01*
X2962621Y-9007379D01*
X2847625Y-8919139D01*
X2847624Y-8919138D01*
X2847622Y-8919137D01*
X2713712Y-8863671D01*
X2713710Y-8863670D01*
X2713709Y-8863670D01*
X2641854Y-8854210D01*
X2570001Y-8844750D01*
X2569999Y-8844750D01*
X2426291Y-8863670D01*
X2426287Y-8863671D01*
X2292377Y-8919137D01*
X2177379Y-9007379D01*
X2089137Y-9122377D01*
X2033671Y-9256287D01*
X2033670Y-9256291D01*
X2014750Y-9399999D01*
X-3009500Y-9399999D01*
X-3009500Y-7190817D01*
X1605820Y-7190817D01*
X1605820Y-7329183D01*
X1628093Y-7412305D01*
X1641632Y-7462835D01*
X1641633Y-7462838D01*
X1710812Y-7582661D01*
X1710814Y-7582664D01*
X1710815Y-7582665D01*
X1808655Y-7680505D01*
X1928484Y-7749688D01*
X2062137Y-7785500D01*
X2062139Y-7785500D01*
X2200501Y-7785500D01*
X2200503Y-7785500D01*
X2334156Y-7749688D01*
X2350941Y-7739997D01*
X3884751Y-7739997D01*
X3884751Y-7740002D01*
X3887387Y-7763408D01*
X3887827Y-7786447D01*
X3887808Y-7786691D01*
X3887809Y-7786699D01*
X3887809Y-7786700D01*
X3962266Y-8456812D01*
X3985213Y-8663328D01*
X3986226Y-8668455D01*
X3985684Y-8668562D01*
X3989500Y-8695706D01*
X3989500Y-12604069D01*
X3989500Y-12604071D01*
X3989499Y-12604071D01*
X4014497Y-12729738D01*
X4014499Y-12729744D01*
X4063533Y-12848124D01*
X4063538Y-12848133D01*
X4134723Y-12954668D01*
X4134726Y-12954672D01*
X4225327Y-13045273D01*
X4225331Y-13045276D01*
X4331866Y-13116461D01*
X4331872Y-13116464D01*
X4331873Y-13116465D01*
X4450256Y-13165501D01*
X4450260Y-13165501D01*
X4450261Y-13165502D01*
X4575928Y-13190500D01*
X4575931Y-13190500D01*
X4622996Y-13190500D01*
X4688968Y-13209506D01*
X4714371Y-13225468D01*
X4722310Y-13230456D01*
X4843621Y-13272904D01*
X4881943Y-13286314D01*
X5049997Y-13305249D01*
X5050000Y-13305249D01*
X5050003Y-13305249D01*
X5218056Y-13286314D01*
X5226098Y-13283500D01*
X5377690Y-13230456D01*
X5377692Y-13230454D01*
X5377694Y-13230454D01*
X5377697Y-13230452D01*
X5520884Y-13140481D01*
X5520885Y-13140480D01*
X5520890Y-13140477D01*
X5640477Y-13020890D01*
X5660100Y-12989660D01*
X5730452Y-12877697D01*
X5730454Y-12877694D01*
X5730454Y-12877692D01*
X5730456Y-12877690D01*
X5786313Y-12718059D01*
X5786313Y-12718058D01*
X5786314Y-12718056D01*
X5805249Y-12550002D01*
X5805249Y-12549997D01*
X5786314Y-12381943D01*
X5730454Y-12222305D01*
X5730452Y-12222302D01*
X5640481Y-12079115D01*
X5640476Y-12079109D01*
X5574098Y-12012731D01*
X5566559Y-12004480D01*
X5552934Y-11988147D01*
X5537739Y-11975587D01*
X5529058Y-11967691D01*
X5520892Y-11959525D01*
X5520884Y-11959518D01*
X5516919Y-11957027D01*
X5503897Y-11947614D01*
X5335499Y-11808420D01*
X5296368Y-11750537D01*
X5290500Y-11712844D01*
X5290500Y-8695866D01*
X5294480Y-8669124D01*
X5293630Y-8668949D01*
X5294784Y-8663338D01*
X5294787Y-8663329D01*
X5392190Y-7786700D01*
X5393566Y-7770309D01*
X5393638Y-7769043D01*
X5393848Y-7757329D01*
X5394607Y-7745693D01*
X5395249Y-7740000D01*
X5387722Y-7673205D01*
X5376314Y-7571944D01*
X5320454Y-7412305D01*
X5320452Y-7412302D01*
X5230481Y-7269115D01*
X5230476Y-7269109D01*
X5110890Y-7149523D01*
X5110884Y-7149518D01*
X4967697Y-7059547D01*
X4967694Y-7059545D01*
X4808056Y-7003685D01*
X4640003Y-6984751D01*
X4639997Y-6984751D01*
X4471943Y-7003685D01*
X4312305Y-7059545D01*
X4312302Y-7059547D01*
X4169115Y-7149518D01*
X4169109Y-7149523D01*
X4049523Y-7269109D01*
X4049518Y-7269115D01*
X3959547Y-7412302D01*
X3959545Y-7412305D01*
X3903685Y-7571943D01*
X3884751Y-7739997D01*
X2350941Y-7739997D01*
X2453985Y-7680505D01*
X2551825Y-7582665D01*
X2621008Y-7462836D01*
X2656820Y-7329183D01*
X2656820Y-7190817D01*
X2621008Y-7057164D01*
X2579201Y-6984751D01*
X2551827Y-6937338D01*
X2551823Y-6937333D01*
X2453986Y-6839496D01*
X2453981Y-6839492D01*
X2334158Y-6770313D01*
X2334157Y-6770312D01*
X2334156Y-6770312D01*
X2200503Y-6734500D01*
X2062137Y-6734500D01*
X1928484Y-6770312D01*
X1928481Y-6770313D01*
X1808658Y-6839492D01*
X1808653Y-6839496D01*
X1710816Y-6937333D01*
X1710812Y-6937338D01*
X1641633Y-7057161D01*
X1641632Y-7057164D01*
X1605820Y-7190817D01*
X-3009500Y-7190817D01*
X-3009500Y-3003480D01*
X-3009305Y-2996528D01*
X-3002290Y-2871610D01*
X-2992602Y-2699097D01*
X-2991048Y-2685298D01*
X-2941731Y-2395041D01*
X-2938637Y-2381489D01*
X-2937246Y-2376663D01*
X-2857133Y-2098582D01*
X-2852541Y-2085462D01*
X-2823953Y-2016445D01*
X-2739877Y-1813463D01*
X-2733855Y-1800957D01*
X-2635002Y-1622097D01*
X-2585346Y-1572946D01*
X-2516998Y-1558443D01*
X-2451659Y-1583193D01*
X-2410074Y-1639340D01*
X-2405068Y-1707308D01*
X-2445799Y-1903319D01*
X-2465408Y-2190000D01*
X-2445799Y-2476680D01*
X-2445799Y-2476684D01*
X-2445798Y-2476686D01*
X-2442089Y-2494534D01*
X-2387334Y-2758034D01*
X-2387333Y-2758037D01*
X-2291106Y-3028793D01*
X-2291107Y-3028793D01*
X-2158902Y-3283935D01*
X-1993188Y-3518700D01*
X-1908077Y-3609831D01*
X-1797053Y-3728708D01*
X-1574147Y-3910055D01*
X-1328618Y-4059365D01*
X-1141763Y-4140526D01*
X-1065058Y-4173844D01*
X-788358Y-4251371D01*
X-538080Y-4285771D01*
X-503679Y-4290500D01*
X-503678Y-4290500D01*
X-216321Y-4290500D01*
X-185630Y-4286281D01*
X68358Y-4251371D01*
X345058Y-4173844D01*
X458015Y-4124779D01*
X608617Y-4059365D01*
X608620Y-4059363D01*
X608625Y-4059361D01*
X854147Y-3910055D01*
X1077053Y-3728708D01*
X1273189Y-3518698D01*
X1438901Y-3283936D01*
X1571104Y-3028797D01*
X1667334Y-2758032D01*
X1725798Y-2476686D01*
X1745408Y-2190000D01*
X1725798Y-1903314D01*
X1667334Y-1621968D01*
X1631904Y-1522279D01*
X1571105Y-1351206D01*
X1571106Y-1351206D01*
X1560117Y-1329999D01*
X11214722Y-1329999D01*
X11214722Y-1330000D01*
X11233762Y-1486818D01*
X11289780Y-1634523D01*
X11289781Y-1634524D01*
X11379518Y-1764532D01*
X11384491Y-1770145D01*
X11383044Y-1771426D01*
X11414850Y-1822120D01*
X11419500Y-1855759D01*
X11419500Y-6154240D01*
X11399815Y-6221279D01*
X11384153Y-6239556D01*
X11384491Y-6239856D01*
X11379515Y-6245472D01*
X11289781Y-6375475D01*
X11289780Y-6375476D01*
X11233762Y-6523181D01*
X11214722Y-6679999D01*
X11214722Y-6680000D01*
X11233762Y-6836818D01*
X11248982Y-6876948D01*
X11289780Y-6984523D01*
X11379517Y-7114530D01*
X11497760Y-7219283D01*
X11497762Y-7219284D01*
X11637634Y-7292696D01*
X11791014Y-7330500D01*
X11791015Y-7330500D01*
X11948985Y-7330500D01*
X12102365Y-7292696D01*
X12147294Y-7269115D01*
X12242240Y-7219283D01*
X12360483Y-7114530D01*
X12450220Y-6984523D01*
X12506237Y-6836818D01*
X12525278Y-6680000D01*
X12506237Y-6523182D01*
X12450220Y-6375477D01*
X12360483Y-6245470D01*
X12360479Y-6245466D01*
X12355509Y-6239856D01*
X12356953Y-6238576D01*
X12325145Y-6187860D01*
X12320500Y-6154240D01*
X12320500Y-1855759D01*
X12340185Y-1788720D01*
X12355846Y-1770444D01*
X12355509Y-1770145D01*
X12360481Y-1764532D01*
X12360481Y-1764531D01*
X12360483Y-1764530D01*
X12450220Y-1634523D01*
X12506237Y-1486818D01*
X12525278Y-1330000D01*
X12519271Y-1280523D01*
X12506237Y-1173181D01*
X12469965Y-1077541D01*
X12450220Y-1025477D01*
X12360483Y-895470D01*
X12242240Y-790717D01*
X12242238Y-790716D01*
X12242237Y-790715D01*
X12102365Y-717303D01*
X11948986Y-679500D01*
X11948985Y-679500D01*
X11791015Y-679500D01*
X11791014Y-679500D01*
X11637634Y-717303D01*
X11497762Y-790715D01*
X11497760Y-790717D01*
X11391714Y-884665D01*
X11379516Y-895471D01*
X11289781Y-1025475D01*
X11289780Y-1025476D01*
X11233762Y-1173181D01*
X11214722Y-1329999D01*
X1560117Y-1329999D01*
X1438901Y-1096064D01*
X1273187Y-861299D01*
X1194554Y-777105D01*
X1077053Y-651292D01*
X855059Y-470687D01*
X815480Y-413111D01*
X813311Y-343275D01*
X849242Y-283353D01*
X911867Y-252369D01*
X933315Y-250500D01*
X1895172Y-250500D01*
X7995172Y-250500D01*
X8244828Y-250500D01*
X13303568Y-250500D01*
X13370607Y-270185D01*
G37*
%TD.AperFunction*%
%TA.AperFunction,Conductor*%
G36*
X18406186Y-16735017D02*
G01*
X18425994Y-16737625D01*
X18426003Y-16737625D01*
X18433233Y-16738577D01*
X18437776Y-16739176D01*
X18469033Y-16747550D01*
X18498477Y-16759746D01*
X18526507Y-16775929D01*
X18552984Y-16796246D01*
X18563249Y-16803788D01*
X18571696Y-16809727D01*
X18661335Y-16852939D01*
X18673265Y-16856442D01*
X18686688Y-16860384D01*
X18745465Y-16898160D01*
X18774488Y-16961716D01*
X18764543Y-17030875D01*
X18718787Y-17083677D01*
X18696464Y-17095018D01*
X18628795Y-17121178D01*
X18552991Y-17163748D01*
X18527745Y-17183119D01*
X18527734Y-17183126D01*
X18526533Y-17184048D01*
X18498477Y-17200251D01*
X18469035Y-17212446D01*
X18437769Y-17220824D01*
X18406188Y-17224982D01*
X18373817Y-17224982D01*
X18359380Y-17223081D01*
X18342222Y-17220822D01*
X18310957Y-17212444D01*
X18281523Y-17200252D01*
X18253490Y-17184067D01*
X18228215Y-17164673D01*
X18205330Y-17141789D01*
X18185925Y-17116500D01*
X18169742Y-17088469D01*
X18169289Y-17087376D01*
X18157552Y-17059038D01*
X18149175Y-17027774D01*
X18145016Y-16996185D01*
X18145016Y-16963814D01*
X18149175Y-16932222D01*
X18157550Y-16900961D01*
X18169745Y-16871520D01*
X18185921Y-16843500D01*
X18205332Y-16818204D01*
X18228204Y-16795332D01*
X18253500Y-16775921D01*
X18281520Y-16759745D01*
X18310961Y-16747550D01*
X18342216Y-16739175D01*
X18373813Y-16735016D01*
X18406186Y-16735017D01*
G37*
%TD.AperFunction*%
%TA.AperFunction,Conductor*%
G36*
X20176188Y-16735017D02*
G01*
X20184221Y-16736074D01*
X20191977Y-16737096D01*
X20191978Y-16737096D01*
X20203233Y-16738577D01*
X20207776Y-16739176D01*
X20239033Y-16747550D01*
X20268477Y-16759746D01*
X20296507Y-16775929D01*
X20322984Y-16796246D01*
X20333249Y-16803788D01*
X20341696Y-16809727D01*
X20431335Y-16852939D01*
X20443265Y-16856442D01*
X20456688Y-16860384D01*
X20515465Y-16898160D01*
X20544488Y-16961716D01*
X20534543Y-17030875D01*
X20488787Y-17083677D01*
X20466464Y-17095018D01*
X20398795Y-17121178D01*
X20322991Y-17163748D01*
X20297745Y-17183119D01*
X20297734Y-17183126D01*
X20296533Y-17184048D01*
X20268477Y-17200251D01*
X20239035Y-17212446D01*
X20207769Y-17220824D01*
X20176188Y-17224982D01*
X20143817Y-17224982D01*
X20129936Y-17223154D01*
X20112221Y-17220822D01*
X20080958Y-17212445D01*
X20064412Y-17205592D01*
X20051525Y-17200254D01*
X20023493Y-17184070D01*
X19997015Y-17163753D01*
X19986751Y-17156212D01*
X19978304Y-17150273D01*
X19978302Y-17150272D01*
X19888661Y-17107059D01*
X19863308Y-17099614D01*
X19804532Y-17061837D01*
X19775510Y-16998280D01*
X19785457Y-16929122D01*
X19831215Y-16876320D01*
X19853537Y-16864981D01*
X19856025Y-16864018D01*
X19856030Y-16864018D01*
X19921199Y-16838824D01*
X19997018Y-16796245D01*
X19997017Y-16796245D01*
X19997020Y-16796244D01*
X20023489Y-16775932D01*
X20023492Y-16775929D01*
X20051522Y-16759745D01*
X20080965Y-16747550D01*
X20112218Y-16739175D01*
X20143813Y-16735016D01*
X20176188Y-16735017D01*
G37*
%TD.AperFunction*%
%TA.AperFunction,Conductor*%
G36*
X22836188Y-16735017D02*
G01*
X22855990Y-16737625D01*
X22856003Y-16737625D01*
X22867781Y-16739176D01*
X22899039Y-16747553D01*
X22928471Y-16759744D01*
X22956504Y-16775928D01*
X22981785Y-16795327D01*
X23004669Y-16818210D01*
X23024069Y-16843493D01*
X23040254Y-16871526D01*
X23052446Y-16900961D01*
X23060823Y-16932225D01*
X23064982Y-16963812D01*
X23064982Y-16996186D01*
X23060823Y-17027773D01*
X23052446Y-17059037D01*
X23040254Y-17088472D01*
X23024068Y-17116508D01*
X23004673Y-17141784D01*
X22981784Y-17164673D01*
X22956508Y-17184068D01*
X22928472Y-17200254D01*
X22899037Y-17212446D01*
X22867775Y-17220823D01*
X22846556Y-17223617D01*
X22836189Y-17224982D01*
X22803817Y-17224982D01*
X22789936Y-17223154D01*
X22772221Y-17220822D01*
X22740958Y-17212445D01*
X22724412Y-17205592D01*
X22711525Y-17200254D01*
X22683493Y-17184070D01*
X22657015Y-17163753D01*
X22646751Y-17156212D01*
X22638304Y-17150273D01*
X22638302Y-17150272D01*
X22548661Y-17107059D01*
X22523308Y-17099614D01*
X22464532Y-17061837D01*
X22435510Y-16998280D01*
X22445457Y-16929122D01*
X22491215Y-16876320D01*
X22513537Y-16864981D01*
X22516025Y-16864018D01*
X22516030Y-16864018D01*
X22581199Y-16838824D01*
X22657018Y-16796245D01*
X22657017Y-16796245D01*
X22657020Y-16796244D01*
X22683489Y-16775932D01*
X22683492Y-16775929D01*
X22711522Y-16759745D01*
X22740965Y-16747550D01*
X22772218Y-16739175D01*
X22803813Y-16735016D01*
X22836188Y-16735017D01*
G37*
%TD.AperFunction*%
%TA.AperFunction,Conductor*%
G36*
X18061129Y-12920185D02*
G01*
X18106884Y-12972989D01*
X18117029Y-13008314D01*
X18123818Y-13059880D01*
X18134429Y-13140477D01*
X18134723Y-13142706D01*
X18134724Y-13142711D01*
X18190190Y-13276620D01*
X18194162Y-13283500D01*
X18210633Y-13351401D01*
X18187780Y-13417427D01*
X18185158Y-13420975D01*
X18184086Y-13422371D01*
X18184084Y-13422374D01*
X18128617Y-13556287D01*
X18128616Y-13556291D01*
X18109696Y-13699999D01*
X18109696Y-13700000D01*
X18128616Y-13843708D01*
X18128617Y-13843712D01*
X18184083Y-13977622D01*
X18184084Y-13977624D01*
X18184085Y-13977625D01*
X18272325Y-14092621D01*
X18387321Y-14180861D01*
X18387322Y-14180861D01*
X18387323Y-14180862D01*
X18399580Y-14185939D01*
X18453984Y-14229779D01*
X18476049Y-14296073D01*
X18458770Y-14363773D01*
X18407633Y-14411384D01*
X18352128Y-14424500D01*
X16316886Y-14424500D01*
X16304244Y-14424762D01*
X16293974Y-14425188D01*
X16196604Y-14445430D01*
X16196599Y-14445432D01*
X16179818Y-14451911D01*
X16168845Y-14452822D01*
X16049035Y-14502446D01*
X16017773Y-14510823D01*
X15986187Y-14514982D01*
X15953814Y-14514982D01*
X15922230Y-14510824D01*
X15890963Y-14502447D01*
X15826719Y-14475837D01*
X15817174Y-14471398D01*
X15813225Y-14469354D01*
X15813224Y-14469353D01*
X15813215Y-14469349D01*
X15812375Y-14469031D01*
X15811889Y-14468663D01*
X15806869Y-14466064D01*
X15807094Y-14465629D01*
X15709172Y-14436876D01*
X15709160Y-14436873D01*
X15623096Y-14424500D01*
X11353285Y-14424500D01*
X11286246Y-14404815D01*
X11240491Y-14352011D01*
X11230547Y-14282853D01*
X11259572Y-14219297D01*
X11265604Y-14212819D01*
X12541604Y-12936819D01*
X12602927Y-12903334D01*
X12629285Y-12900500D01*
X17994090Y-12900500D01*
X18061129Y-12920185D01*
G37*
%TD.AperFunction*%
%TA.AperFunction,Conductor*%
G36*
X24613724Y-270185D02*
G01*
X24659479Y-322989D01*
X24669423Y-392147D01*
X24640398Y-455703D01*
X24624940Y-470688D01*
X24402950Y-651289D01*
X24206812Y-861299D01*
X24041098Y-1096064D01*
X23908894Y-1351206D01*
X23812667Y-1621962D01*
X23812666Y-1621965D01*
X23754201Y-1903319D01*
X23734592Y-2190000D01*
X23754201Y-2476680D01*
X23754201Y-2476684D01*
X23754202Y-2476686D01*
X23757911Y-2494534D01*
X23812666Y-2758034D01*
X23812667Y-2758037D01*
X23908894Y-3028793D01*
X23908893Y-3028793D01*
X24041098Y-3283935D01*
X24206812Y-3518700D01*
X24291923Y-3609831D01*
X24402947Y-3728708D01*
X24625853Y-3910055D01*
X24871382Y-4059365D01*
X25058237Y-4140526D01*
X25134942Y-4173844D01*
X25411642Y-4251371D01*
X25661920Y-4285771D01*
X25696321Y-4290500D01*
X25696322Y-4290500D01*
X25983679Y-4290500D01*
X26014370Y-4286281D01*
X26268358Y-4251371D01*
X26545058Y-4173844D01*
X26658015Y-4124779D01*
X26808617Y-4059365D01*
X26808620Y-4059363D01*
X26808625Y-4059361D01*
X27054147Y-3910055D01*
X27277053Y-3728708D01*
X27473189Y-3518698D01*
X27638901Y-3283936D01*
X27771104Y-3028797D01*
X27867334Y-2758032D01*
X27925798Y-2476686D01*
X27945408Y-2190000D01*
X27925798Y-1903314D01*
X27867334Y-1621968D01*
X27831904Y-1522279D01*
X27771105Y-1351206D01*
X27771106Y-1351206D01*
X27638901Y-1096064D01*
X27473187Y-861299D01*
X27394554Y-777105D01*
X27277053Y-651292D01*
X27055059Y-470687D01*
X27015480Y-413111D01*
X27013311Y-343275D01*
X27049242Y-283353D01*
X27111867Y-252369D01*
X27133315Y-250500D01*
X27355830Y-250500D01*
X27396519Y-250500D01*
X27403471Y-250695D01*
X27416649Y-251435D01*
X27700900Y-267397D01*
X27714703Y-268953D01*
X28004953Y-318269D01*
X28018510Y-321363D01*
X28301413Y-402866D01*
X28314537Y-407459D01*
X28586527Y-520120D01*
X28599049Y-526149D01*
X28797673Y-635925D01*
X28856726Y-668563D01*
X28868500Y-675961D01*
X29108604Y-846323D01*
X29119476Y-854993D01*
X29314572Y-1029342D01*
X29338997Y-1051169D01*
X29348828Y-1061000D01*
X29417437Y-1137773D01*
X29545006Y-1280523D01*
X29553676Y-1291395D01*
X29724038Y-1531499D01*
X29731436Y-1543273D01*
X29873846Y-1800943D01*
X29879879Y-1813472D01*
X29992540Y-2085462D01*
X29997133Y-2098586D01*
X30078636Y-2381489D01*
X30081730Y-2395046D01*
X30131045Y-2685288D01*
X30132602Y-2699106D01*
X30149305Y-2996527D01*
X30149500Y-3003480D01*
X30149500Y-4228649D01*
X30129815Y-4295688D01*
X30077011Y-4341443D01*
X30007853Y-4351387D01*
X29944297Y-4322362D01*
X29926546Y-4303376D01*
X29913872Y-4286593D01*
X29756302Y-4142948D01*
X29575019Y-4030702D01*
X29575017Y-4030701D01*
X29475608Y-3992190D01*
X29376198Y-3953679D01*
X29166610Y-3914500D01*
X28953390Y-3914500D01*
X28743802Y-3953679D01*
X28743799Y-3953679D01*
X28743799Y-3953680D01*
X28544982Y-4030701D01*
X28544980Y-4030702D01*
X28363699Y-4142947D01*
X28206127Y-4286593D01*
X28077632Y-4456746D01*
X27982596Y-4647605D01*
X27982596Y-4647607D01*
X27924244Y-4852689D01*
X27904571Y-5064999D01*
X27904571Y-5065000D01*
X27924244Y-5277310D01*
X27982596Y-5482392D01*
X27982596Y-5482394D01*
X28077632Y-5673253D01*
X28206126Y-5843405D01*
X28206128Y-5843407D01*
X28363698Y-5987052D01*
X28544981Y-6099298D01*
X28743802Y-6176321D01*
X28953390Y-6215500D01*
X28953392Y-6215500D01*
X29166608Y-6215500D01*
X29166610Y-6215500D01*
X29376198Y-6176321D01*
X29575019Y-6099298D01*
X29756302Y-5987052D01*
X29913872Y-5843407D01*
X29926545Y-5826624D01*
X29982653Y-5784988D01*
X30052365Y-5780295D01*
X30113547Y-5814036D01*
X30146775Y-5875499D01*
X30149500Y-5901350D01*
X30149500Y-9308649D01*
X30129815Y-9375688D01*
X30077011Y-9421443D01*
X30007853Y-9431387D01*
X29944297Y-9402362D01*
X29926546Y-9383376D01*
X29913872Y-9366593D01*
X29841372Y-9300500D01*
X29756302Y-9222948D01*
X29575019Y-9110702D01*
X29575017Y-9110701D01*
X29475608Y-9072190D01*
X29376198Y-9033679D01*
X29166610Y-8994500D01*
X28953390Y-8994500D01*
X28743802Y-9033679D01*
X28743799Y-9033679D01*
X28743799Y-9033680D01*
X28544982Y-9110701D01*
X28544980Y-9110702D01*
X28363699Y-9222947D01*
X28206127Y-9366593D01*
X28077632Y-9536746D01*
X27982596Y-9727605D01*
X27982596Y-9727607D01*
X27933546Y-9899999D01*
X27924244Y-9932690D01*
X27904571Y-10145000D01*
X27924244Y-10357310D01*
X27980421Y-10554750D01*
X27982596Y-10562392D01*
X27982596Y-10562394D01*
X28077632Y-10753253D01*
X28206126Y-10923405D01*
X28206128Y-10923407D01*
X28363698Y-11067052D01*
X28544981Y-11179298D01*
X28743802Y-11256321D01*
X28940613Y-11293111D01*
X29002893Y-11324779D01*
X29038166Y-11385092D01*
X29035232Y-11454900D01*
X28995023Y-11512040D01*
X28940613Y-11536888D01*
X28743802Y-11573679D01*
X28743799Y-11573679D01*
X28743799Y-11573680D01*
X28544982Y-11650701D01*
X28544980Y-11650702D01*
X28363699Y-11762947D01*
X28206127Y-11906593D01*
X28077632Y-12076746D01*
X27982596Y-12267605D01*
X27982596Y-12267607D01*
X27927983Y-12459550D01*
X27924244Y-12472690D01*
X27904571Y-12685000D01*
X27924244Y-12897310D01*
X27959404Y-13020884D01*
X27982596Y-13102392D01*
X27982596Y-13102394D01*
X28077632Y-13293253D01*
X28203935Y-13460503D01*
X28206128Y-13463407D01*
X28363698Y-13607052D01*
X28544981Y-13719298D01*
X28743802Y-13796321D01*
X28916544Y-13828612D01*
X28978823Y-13860279D01*
X29014096Y-13920591D01*
X29011162Y-13990400D01*
X28970953Y-14047540D01*
X28906235Y-14073871D01*
X28893757Y-14074500D01*
X28165143Y-14074500D01*
X28165117Y-14074502D01*
X28140012Y-14077413D01*
X28140008Y-14077415D01*
X28037235Y-14122793D01*
X27957794Y-14202234D01*
X27912415Y-14305006D01*
X27912415Y-14305008D01*
X27911280Y-14314792D01*
X27883999Y-14379116D01*
X27826273Y-14418480D01*
X27788106Y-14424500D01*
X22402575Y-14424500D01*
X22335536Y-14404815D01*
X22289781Y-14352011D01*
X22279837Y-14282853D01*
X22308862Y-14219297D01*
X22314894Y-14212819D01*
X22699101Y-13828611D01*
X23147023Y-13380687D01*
X23147028Y-13380684D01*
X23157231Y-13370480D01*
X23157233Y-13370480D01*
X23231800Y-13295913D01*
X23284527Y-13204587D01*
X23294499Y-13167372D01*
X23311821Y-13102727D01*
X23311821Y-12997273D01*
X23311821Y-12989678D01*
X23311820Y-12989660D01*
X23311820Y-2763618D01*
X23314423Y-2738344D01*
X23314466Y-2738136D01*
X23316991Y-2726010D01*
X23345191Y-1348175D01*
X23345243Y-1344639D01*
X23345245Y-1344414D01*
X23345245Y-1344372D01*
X23345210Y-1338943D01*
X23345429Y-1333852D01*
X23345429Y-1330002D01*
X23345429Y-1329999D01*
X23325756Y-1117690D01*
X23267405Y-912611D01*
X23267403Y-912606D01*
X23267403Y-912605D01*
X23172367Y-721746D01*
X23043870Y-551591D01*
X22950132Y-466137D01*
X22913850Y-406426D01*
X22915611Y-336578D01*
X22954854Y-278771D01*
X23019121Y-251356D01*
X23033670Y-250500D01*
X24546685Y-250500D01*
X24613724Y-270185D01*
G37*
%TD.AperFunction*%
%TA.AperFunction,Conductor*%
G36*
X19464319Y-6801069D02*
G01*
X19499185Y-6825578D01*
X21574501Y-8900893D01*
X21607986Y-8962216D01*
X21610820Y-8988574D01*
X21610820Y-10432745D01*
X21591135Y-10499784D01*
X21574501Y-10520426D01*
X21421746Y-10673181D01*
X21360423Y-10706666D01*
X21334065Y-10709500D01*
X18123264Y-10709500D01*
X18085053Y-10703466D01*
X17855591Y-10629139D01*
X17740053Y-10591714D01*
X17740051Y-10591713D01*
X17740050Y-10591713D01*
X17736590Y-10591234D01*
X17706161Y-10582969D01*
X17683711Y-10573670D01*
X17683713Y-10573670D01*
X17540001Y-10554750D01*
X17539999Y-10554750D01*
X17396291Y-10573670D01*
X17396287Y-10573671D01*
X17262377Y-10629137D01*
X17147379Y-10717379D01*
X17059137Y-10832377D01*
X17003671Y-10966287D01*
X17003670Y-10966291D01*
X16984750Y-11109999D01*
X16984750Y-11110000D01*
X17003670Y-11253708D01*
X17003671Y-11253712D01*
X17059137Y-11387622D01*
X17059138Y-11387624D01*
X17059139Y-11387625D01*
X17147379Y-11502621D01*
X17262375Y-11590861D01*
X17396291Y-11646330D01*
X17523280Y-11663048D01*
X17539999Y-11665250D01*
X17540000Y-11665250D01*
X17540001Y-11665250D01*
X17556719Y-11663048D01*
X17683709Y-11646330D01*
X17706255Y-11636990D01*
X17737835Y-11628571D01*
X17740053Y-11628285D01*
X18085051Y-11516534D01*
X18123262Y-11510500D01*
X21604045Y-11510500D01*
X21604047Y-11510500D01*
X21705908Y-11483207D01*
X21724818Y-11472288D01*
X21792717Y-11455815D01*
X21858745Y-11478666D01*
X21901937Y-11533586D01*
X21910820Y-11579675D01*
X21910820Y-11632745D01*
X21891135Y-11699784D01*
X21874501Y-11720426D01*
X21032747Y-12562180D01*
X20971424Y-12595665D01*
X20945066Y-12598499D01*
X20597092Y-12598499D01*
X20530053Y-12578814D01*
X20484298Y-12526010D01*
X20473996Y-12459553D01*
X20475278Y-12448999D01*
X20456237Y-12292181D01*
X20446917Y-12267607D01*
X20429738Y-12222310D01*
X20400220Y-12144476D01*
X20310483Y-12014469D01*
X20192240Y-11909716D01*
X20192238Y-11909715D01*
X20192237Y-11909714D01*
X20052365Y-11836302D01*
X19898986Y-11798499D01*
X19898985Y-11798499D01*
X19741015Y-11798499D01*
X19741014Y-11798499D01*
X19586240Y-11836645D01*
X19584004Y-11837413D01*
X19075811Y-11994002D01*
X19039297Y-11999500D01*
X13729527Y-11999500D01*
X13662488Y-11979815D01*
X13616733Y-11927011D01*
X13606789Y-11857853D01*
X13635814Y-11794297D01*
X13671900Y-11765704D01*
X13679707Y-11761605D01*
X13722240Y-11739283D01*
X13840483Y-11634530D01*
X13930220Y-11504523D01*
X13986237Y-11356818D01*
X14005278Y-11200000D01*
X13986237Y-11043182D01*
X13930220Y-10895477D01*
X13872450Y-10811782D01*
X13850567Y-10745427D01*
X13850500Y-10741342D01*
X13850500Y-9274500D01*
X13870185Y-9207461D01*
X13922989Y-9161706D01*
X13974500Y-9150500D01*
X16986956Y-9150500D01*
X17053995Y-9170185D01*
X17069179Y-9181681D01*
X17077760Y-9189283D01*
X17077762Y-9189284D01*
X17077766Y-9189287D01*
X17217634Y-9262696D01*
X17371014Y-9300500D01*
X17371015Y-9300500D01*
X17528985Y-9300500D01*
X17682365Y-9262696D01*
X17822237Y-9189285D01*
X17822238Y-9189283D01*
X17822240Y-9189283D01*
X17847312Y-9167070D01*
X17910543Y-9137351D01*
X17979806Y-9146533D01*
X18033110Y-9191705D01*
X18053531Y-9258524D01*
X18052634Y-9274832D01*
X18044722Y-9339998D01*
X18044722Y-9340000D01*
X18063762Y-9496818D01*
X18102915Y-9600054D01*
X18119780Y-9644523D01*
X18209517Y-9774530D01*
X18327760Y-9879283D01*
X18327762Y-9879284D01*
X18467634Y-9952696D01*
X18621014Y-9990500D01*
X18621015Y-9990500D01*
X18778985Y-9990500D01*
X18932365Y-9952696D01*
X19072240Y-9879283D01*
X19190483Y-9774530D01*
X19280220Y-9644523D01*
X19336237Y-9496818D01*
X19355278Y-9340000D01*
X19336237Y-9183182D01*
X19320098Y-9140628D01*
X19312822Y-9110558D01*
X19312360Y-9106461D01*
X19155936Y-8595693D01*
X19150500Y-8559382D01*
X19150500Y-7360616D01*
X19155936Y-7324305D01*
X19292940Y-6876946D01*
X19331392Y-6818612D01*
X19395280Y-6790325D01*
X19464319Y-6801069D01*
G37*
%TD.AperFunction*%
%TA.AperFunction,Conductor*%
G36*
X16478640Y-2295476D02*
G01*
X16502087Y-2306781D01*
X16525703Y-2321403D01*
X16594981Y-2364298D01*
X16667183Y-2392269D01*
X16682675Y-2399538D01*
X16690563Y-2403927D01*
X16699642Y-2408979D01*
X16699643Y-2408979D01*
X16699648Y-2408982D01*
X16775362Y-2434320D01*
X16780778Y-2436275D01*
X16793802Y-2441321D01*
X16793816Y-2441323D01*
X16799319Y-2442890D01*
X16799301Y-2442953D01*
X16807542Y-2445090D01*
X17473280Y-2667891D01*
X17473280Y-2667890D01*
X17728016Y-2753143D01*
X17728017Y-2753144D01*
X18059154Y-2863964D01*
X18107480Y-2893873D01*
X21874501Y-6660894D01*
X21907986Y-6722217D01*
X21910820Y-6748575D01*
X21910820Y-7805065D01*
X21891135Y-7872104D01*
X21838331Y-7917859D01*
X21769173Y-7927803D01*
X21705617Y-7898778D01*
X21699139Y-7892746D01*
X16376266Y-2569873D01*
X16348335Y-2527025D01*
X16321196Y-2457034D01*
X16315314Y-2387416D01*
X16348004Y-2325666D01*
X16408890Y-2291392D01*
X16478640Y-2295476D01*
G37*
%TD.AperFunction*%
%TA.AperFunction,Conductor*%
G36*
X18876227Y-2186213D02*
G01*
X18900336Y-2203406D01*
X18953698Y-2252052D01*
X19134981Y-2364298D01*
X19207183Y-2392269D01*
X19222675Y-2399538D01*
X19230563Y-2403927D01*
X19239642Y-2408979D01*
X19239643Y-2408979D01*
X19239648Y-2408982D01*
X19315362Y-2434320D01*
X19320778Y-2436275D01*
X19333802Y-2441321D01*
X19333816Y-2441323D01*
X19339319Y-2442890D01*
X19339301Y-2442953D01*
X19347542Y-2445090D01*
X20013280Y-2667891D01*
X20013280Y-2667890D01*
X20268016Y-2753143D01*
X20268017Y-2753144D01*
X20599154Y-2863964D01*
X20647480Y-2893873D01*
X22174501Y-4420894D01*
X22207986Y-4482217D01*
X22210820Y-4508575D01*
X22210820Y-5565065D01*
X22191135Y-5632104D01*
X22138331Y-5677859D01*
X22069173Y-5687803D01*
X22005617Y-5658778D01*
X21999139Y-5652746D01*
X18729119Y-2382726D01*
X18695634Y-2321403D01*
X18700618Y-2251711D01*
X18742490Y-2195778D01*
X18807954Y-2171361D01*
X18876227Y-2186213D01*
G37*
%TD.AperFunction*%
%TA.AperFunction,Conductor*%
G36*
X21416227Y-2186213D02*
G01*
X21440336Y-2203406D01*
X21493698Y-2252052D01*
X21674981Y-2364298D01*
X21693270Y-2371383D01*
X21716101Y-2383074D01*
X22454447Y-2863490D01*
X22499903Y-2916551D01*
X22510820Y-2967425D01*
X22510820Y-3325065D01*
X22491135Y-3392104D01*
X22438331Y-3437859D01*
X22369173Y-3447803D01*
X22305617Y-3418778D01*
X22299139Y-3412746D01*
X21269119Y-2382726D01*
X21235634Y-2321403D01*
X21240618Y-2251711D01*
X21282490Y-2195778D01*
X21347954Y-2171361D01*
X21416227Y-2186213D01*
G37*
%TD.AperFunction*%
%TD*%
%TA.AperFunction,Conductor*%
%TO.N,/CH343_VDD_5V*%
G36*
X15684605Y-14748061D02*
G01*
X15685336Y-14746797D01*
X15692371Y-14750858D01*
X15692375Y-14750861D01*
X15826291Y-14806330D01*
X15952993Y-14823011D01*
X15969999Y-14825250D01*
X15970000Y-14825250D01*
X15970001Y-14825250D01*
X15984977Y-14823278D01*
X16113709Y-14806330D01*
X16247625Y-14750861D01*
X16247631Y-14750856D01*
X16254664Y-14746797D01*
X16256409Y-14749820D01*
X16306638Y-14730426D01*
X16316904Y-14730000D01*
X20760273Y-14730000D01*
X20827312Y-14749685D01*
X20873067Y-14802489D01*
X20874815Y-14806504D01*
X20897299Y-14860785D01*
X20985539Y-14975781D01*
X21100535Y-15064021D01*
X21234451Y-15119490D01*
X21361440Y-15136208D01*
X21378159Y-15138410D01*
X21378160Y-15138410D01*
X21378161Y-15138410D01*
X21393137Y-15136438D01*
X21521869Y-15119490D01*
X21655785Y-15064021D01*
X21770781Y-14975781D01*
X21859021Y-14860785D01*
X21868361Y-14838234D01*
X21884733Y-14809958D01*
X21886103Y-14808183D01*
X21891504Y-14797605D01*
X21939523Y-14746854D01*
X22001938Y-14730000D01*
X30025500Y-14730000D01*
X30092539Y-14749685D01*
X30138294Y-14802489D01*
X30149500Y-14854000D01*
X30149500Y-17296519D01*
X30149305Y-17303472D01*
X30132602Y-17600893D01*
X30131045Y-17614711D01*
X30081730Y-17904953D01*
X30078636Y-17918510D01*
X29997133Y-18201413D01*
X29992540Y-18214537D01*
X29879879Y-18486527D01*
X29873846Y-18499056D01*
X29731436Y-18756726D01*
X29724038Y-18768500D01*
X29553676Y-19008604D01*
X29545006Y-19019476D01*
X29348830Y-19238997D01*
X29338997Y-19248830D01*
X29119476Y-19445006D01*
X29108604Y-19453676D01*
X28868500Y-19624038D01*
X28856726Y-19631436D01*
X28599056Y-19773846D01*
X28586527Y-19779879D01*
X28314537Y-19892540D01*
X28301413Y-19897133D01*
X28018510Y-19978636D01*
X28004953Y-19981730D01*
X27714711Y-20031045D01*
X27700893Y-20032602D01*
X27403472Y-20049305D01*
X27396519Y-20049500D01*
X27133315Y-20049500D01*
X27066276Y-20029815D01*
X27020521Y-19977011D01*
X27010577Y-19907853D01*
X27039602Y-19844297D01*
X27055060Y-19829312D01*
X27277053Y-19648708D01*
X27473189Y-19438698D01*
X27638901Y-19203936D01*
X27771104Y-18948797D01*
X27867334Y-18678032D01*
X27925798Y-18396686D01*
X27945408Y-18110000D01*
X27925798Y-17823314D01*
X27867334Y-17541968D01*
X27864946Y-17535250D01*
X27771105Y-17271206D01*
X27771106Y-17271206D01*
X27638901Y-17016064D01*
X27473187Y-16781299D01*
X27394554Y-16697105D01*
X27277053Y-16571292D01*
X27054147Y-16389945D01*
X27054146Y-16389944D01*
X26808617Y-16240634D01*
X26545063Y-16126158D01*
X26545061Y-16126157D01*
X26545058Y-16126156D01*
X26415578Y-16089877D01*
X26268364Y-16048630D01*
X26268359Y-16048629D01*
X26268358Y-16048629D01*
X26126018Y-16029064D01*
X25983679Y-16009500D01*
X25983678Y-16009500D01*
X25696322Y-16009500D01*
X25696321Y-16009500D01*
X25411642Y-16048629D01*
X25411635Y-16048630D01*
X25203861Y-16106845D01*
X25134942Y-16126156D01*
X25134939Y-16126156D01*
X25134936Y-16126158D01*
X25134935Y-16126158D01*
X24871382Y-16240634D01*
X24625853Y-16389944D01*
X24402950Y-16571289D01*
X24206812Y-16781299D01*
X24041098Y-17016064D01*
X23908894Y-17271206D01*
X23812667Y-17541962D01*
X23812666Y-17541965D01*
X23754201Y-17823319D01*
X23734592Y-18110000D01*
X23754201Y-18396680D01*
X23812666Y-18678034D01*
X23812667Y-18678037D01*
X23908894Y-18948793D01*
X23908893Y-18948793D01*
X24041098Y-19203935D01*
X24206812Y-19438700D01*
X24291923Y-19529831D01*
X24402947Y-19648708D01*
X24624940Y-19829312D01*
X24664520Y-19886889D01*
X24666689Y-19956725D01*
X24630758Y-20016647D01*
X24568133Y-20047631D01*
X24546685Y-20049500D01*
X23010762Y-20049500D01*
X22943723Y-20029815D01*
X22897968Y-19977011D01*
X22888024Y-19907853D01*
X22917049Y-19844297D01*
X22927224Y-19833863D01*
X23053870Y-19718409D01*
X23106505Y-19648710D01*
X23182366Y-19548255D01*
X23214758Y-19483202D01*
X23277403Y-19357394D01*
X23277403Y-19357393D01*
X23277405Y-19357389D01*
X23335756Y-19152310D01*
X23355429Y-18940000D01*
X23335756Y-18727690D01*
X23277405Y-18522611D01*
X23277403Y-18522606D01*
X23277403Y-18522605D01*
X23182367Y-18331746D01*
X23053872Y-18161593D01*
X23032869Y-18142446D01*
X22896302Y-18017948D01*
X22715019Y-17905702D01*
X22715017Y-17905701D01*
X22605282Y-17863190D01*
X22516198Y-17828679D01*
X22306610Y-17789500D01*
X22093390Y-17789500D01*
X21883802Y-17828679D01*
X21883799Y-17828679D01*
X21883799Y-17828680D01*
X21684982Y-17905701D01*
X21684980Y-17905702D01*
X21503699Y-18017947D01*
X21346127Y-18161593D01*
X21217632Y-18331746D01*
X21122596Y-18522605D01*
X21122596Y-18522607D01*
X21064244Y-18727689D01*
X21053471Y-18843951D01*
X21027685Y-18908888D01*
X20983130Y-18940804D01*
X21019503Y-18961668D01*
X21051693Y-19023681D01*
X21053471Y-19036048D01*
X21064244Y-19152310D01*
X21122596Y-19357392D01*
X21122596Y-19357394D01*
X21217632Y-19548253D01*
X21346129Y-19718409D01*
X21472776Y-19833863D01*
X21509058Y-19893574D01*
X21507297Y-19963422D01*
X21468053Y-20021229D01*
X21403786Y-20048644D01*
X21389238Y-20049500D01*
X20470762Y-20049500D01*
X20403723Y-20029815D01*
X20357968Y-19977011D01*
X20348024Y-19907853D01*
X20377049Y-19844297D01*
X20387224Y-19833863D01*
X20513870Y-19718409D01*
X20566505Y-19648710D01*
X20642366Y-19548255D01*
X20674758Y-19483202D01*
X20737403Y-19357394D01*
X20737403Y-19357393D01*
X20737405Y-19357389D01*
X20795756Y-19152310D01*
X20806529Y-19036047D01*
X20832315Y-18971111D01*
X20876869Y-18939194D01*
X20840497Y-18918331D01*
X20808307Y-18856318D01*
X20806529Y-18843951D01*
X20803175Y-18807759D01*
X20795756Y-18727690D01*
X20737405Y-18522611D01*
X20737403Y-18522606D01*
X20737403Y-18522605D01*
X20642367Y-18331746D01*
X20513872Y-18161593D01*
X20492869Y-18142446D01*
X20356302Y-18017948D01*
X20175019Y-17905702D01*
X20175017Y-17905701D01*
X20065282Y-17863190D01*
X19976198Y-17828679D01*
X19766610Y-17789500D01*
X19553390Y-17789500D01*
X19343802Y-17828679D01*
X19343799Y-17828679D01*
X19343799Y-17828680D01*
X19144982Y-17905701D01*
X19144980Y-17905702D01*
X18963699Y-18017947D01*
X18806127Y-18161593D01*
X18677632Y-18331746D01*
X18582596Y-18522605D01*
X18582596Y-18522607D01*
X18524244Y-18727689D01*
X18517970Y-18795394D01*
X18492183Y-18860331D01*
X18435383Y-18901018D01*
X18365602Y-18904538D01*
X18304995Y-18869772D01*
X18272806Y-18807759D01*
X18270499Y-18783952D01*
X18270499Y-18045143D01*
X18270499Y-18045136D01*
X18270497Y-18045117D01*
X18267586Y-18020012D01*
X18267585Y-18020010D01*
X18267585Y-18020009D01*
X18222206Y-17917235D01*
X18142765Y-17837794D01*
X18122124Y-17828680D01*
X18039992Y-17792415D01*
X18014865Y-17789500D01*
X16225143Y-17789500D01*
X16225117Y-17789502D01*
X16200012Y-17792413D01*
X16200008Y-17792415D01*
X16097235Y-17837793D01*
X16017794Y-17917234D01*
X15972415Y-18020006D01*
X15972415Y-18020008D01*
X15969500Y-18045131D01*
X15969500Y-19834856D01*
X15969502Y-19834882D01*
X15972413Y-19859986D01*
X15972414Y-19859990D01*
X15972415Y-19859991D01*
X15979225Y-19875414D01*
X15988297Y-19944690D01*
X15958475Y-20007876D01*
X15899226Y-20044907D01*
X15865791Y-20049500D01*
X7764000Y-20049500D01*
X7696961Y-20029815D01*
X7651206Y-19977011D01*
X7640000Y-19925500D01*
X7640000Y-17889785D01*
X7659685Y-17822746D01*
X7676319Y-17802104D01*
X8498424Y-16979999D01*
X17834750Y-16979999D01*
X17834750Y-16980000D01*
X17853670Y-17123708D01*
X17853671Y-17123712D01*
X17909137Y-17257622D01*
X17909138Y-17257624D01*
X17909139Y-17257625D01*
X17997379Y-17372621D01*
X18112375Y-17460861D01*
X18246291Y-17516330D01*
X18373280Y-17533048D01*
X18389999Y-17535250D01*
X18390000Y-17535250D01*
X18390001Y-17535250D01*
X18404977Y-17533278D01*
X18533709Y-17516330D01*
X18667625Y-17460861D01*
X18714280Y-17425060D01*
X18738960Y-17406124D01*
X18804129Y-17380930D01*
X18814446Y-17380500D01*
X19735554Y-17380500D01*
X19802593Y-17400185D01*
X19811040Y-17406124D01*
X19840058Y-17428390D01*
X19882375Y-17460861D01*
X20016291Y-17516330D01*
X20143280Y-17533048D01*
X20159999Y-17535250D01*
X20160000Y-17535250D01*
X20160001Y-17535250D01*
X20174977Y-17533278D01*
X20303709Y-17516330D01*
X20437625Y-17460861D01*
X20484280Y-17425060D01*
X20508960Y-17406124D01*
X20574129Y-17380930D01*
X20584446Y-17380500D01*
X22395554Y-17380500D01*
X22462593Y-17400185D01*
X22471040Y-17406124D01*
X22500058Y-17428390D01*
X22542375Y-17460861D01*
X22676291Y-17516330D01*
X22803280Y-17533048D01*
X22819999Y-17535250D01*
X22820000Y-17535250D01*
X22820001Y-17535250D01*
X22834977Y-17533278D01*
X22963709Y-17516330D01*
X23097625Y-17460861D01*
X23212621Y-17372621D01*
X23300861Y-17257625D01*
X23356330Y-17123709D01*
X23375250Y-16980000D01*
X23356330Y-16836291D01*
X23300861Y-16702375D01*
X23212621Y-16587379D01*
X23097625Y-16499139D01*
X23097624Y-16499138D01*
X23097622Y-16499137D01*
X22963712Y-16443671D01*
X22963710Y-16443670D01*
X22963709Y-16443670D01*
X22891854Y-16434210D01*
X22820001Y-16424750D01*
X22819999Y-16424750D01*
X22676291Y-16443670D01*
X22676287Y-16443671D01*
X22542376Y-16499138D01*
X22542374Y-16499139D01*
X22471040Y-16553876D01*
X22405871Y-16579070D01*
X22395554Y-16579500D01*
X20584446Y-16579500D01*
X20517407Y-16559815D01*
X20508960Y-16553876D01*
X20437625Y-16499139D01*
X20437623Y-16499138D01*
X20303712Y-16443671D01*
X20303710Y-16443670D01*
X20303709Y-16443670D01*
X20231854Y-16434210D01*
X20160001Y-16424750D01*
X20159999Y-16424750D01*
X20016291Y-16443670D01*
X20016287Y-16443671D01*
X19882376Y-16499138D01*
X19882374Y-16499139D01*
X19811040Y-16553876D01*
X19745871Y-16579070D01*
X19735554Y-16579500D01*
X18814446Y-16579500D01*
X18747407Y-16559815D01*
X18738960Y-16553876D01*
X18667625Y-16499139D01*
X18667623Y-16499138D01*
X18533712Y-16443671D01*
X18533710Y-16443670D01*
X18533709Y-16443670D01*
X18461854Y-16434210D01*
X18390001Y-16424750D01*
X18389999Y-16424750D01*
X18246291Y-16443670D01*
X18246287Y-16443671D01*
X18112377Y-16499137D01*
X17997379Y-16587379D01*
X17909137Y-16702377D01*
X17853671Y-16836287D01*
X17853670Y-16836291D01*
X17834750Y-16979999D01*
X8498424Y-16979999D01*
X10712104Y-14766319D01*
X10773427Y-14732834D01*
X10799785Y-14730000D01*
X15623096Y-14730000D01*
X15684605Y-14748061D01*
G37*
%TD.AperFunction*%
%TD*%
%TA.AperFunction,Conductor*%
%TO.N,/CH343_VDD_5V*%
G36*
X4993244Y-11921874D02*
G01*
X5009732Y-11935503D01*
X5358298Y-12223619D01*
X5362492Y-12231531D01*
X5359862Y-12240091D01*
X5359130Y-12240897D01*
X5051659Y-12549335D01*
X5047828Y-12551894D01*
X4644917Y-12717816D01*
X4635962Y-12717797D01*
X4629709Y-12711607D01*
X4427569Y-12240091D01*
X4296991Y-11935502D01*
X4296881Y-11926549D01*
X4303135Y-11920140D01*
X4307745Y-11919193D01*
X4985791Y-11919193D01*
X4993244Y-11921874D01*
G37*
%TD.AperFunction*%
%TD*%
%TA.AperFunction,Conductor*%
%TO.N,/CH343_VDD_5V*%
G36*
X5076957Y-7739971D02*
G01*
X5085223Y-7743416D01*
X5088631Y-7751697D01*
X5088559Y-7752963D01*
X4991156Y-8629592D01*
X4986837Y-8637436D01*
X4979528Y-8640000D01*
X4300472Y-8640000D01*
X4292199Y-8636573D01*
X4288844Y-8629592D01*
X4191440Y-7752963D01*
X4193932Y-7744362D01*
X4201776Y-7740043D01*
X4203041Y-7739971D01*
X4640000Y-7739000D01*
X5076957Y-7739971D01*
G37*
%TD.AperFunction*%
%TD*%
%TA.AperFunction,Conductor*%
%TO.N,/CH343_VDD_3.3V*%
G36*
X4711834Y-17388434D02*
G01*
X4912885Y-17589485D01*
X4916312Y-17597758D01*
X4915412Y-17602258D01*
X4215806Y-19281315D01*
X4209461Y-19287634D01*
X4200539Y-19287629D01*
X3365104Y-18942562D01*
X3358766Y-18936236D01*
X3013690Y-18100778D01*
X3013699Y-18091825D01*
X3020001Y-18085515D01*
X4699062Y-17385906D01*
X4708016Y-17385888D01*
X4711834Y-17388434D01*
G37*
%TD.AperFunction*%
%TD*%
%TA.AperFunction,Conductor*%
%TO.N,/CH343_VIO*%
G36*
X18849620Y-8643427D02*
G01*
X18852534Y-8648274D01*
X19020252Y-9195920D01*
X19019398Y-9204834D01*
X19013571Y-9210144D01*
X18704506Y-9339119D01*
X18695551Y-9339142D01*
X18695494Y-9339119D01*
X18386428Y-9210144D01*
X18380113Y-9203795D01*
X18379747Y-9195922D01*
X18547466Y-8648273D01*
X18553165Y-8641367D01*
X18558653Y-8640000D01*
X18841347Y-8640000D01*
X18849620Y-8643427D01*
G37*
%TD.AperFunction*%
%TD*%
%TA.AperFunction,Conductor*%
%TO.N,/CH343_VIO*%
G36*
X18704478Y-6580868D02*
G01*
X18918891Y-6670344D01*
X19013571Y-6709855D01*
X19019886Y-6716204D01*
X19020252Y-6724079D01*
X18852534Y-7271726D01*
X18846835Y-7278633D01*
X18841347Y-7280000D01*
X18558653Y-7280000D01*
X18550380Y-7276573D01*
X18547466Y-7271726D01*
X18379747Y-6724079D01*
X18380601Y-6715165D01*
X18386427Y-6709855D01*
X18695494Y-6580879D01*
X18704449Y-6580857D01*
X18704478Y-6580868D01*
G37*
%TD.AperFunction*%
%TD*%
%TA.AperFunction,Conductor*%
%TO.N,/CH343_VIO*%
G36*
X6999260Y-17634795D02*
G01*
X7002625Y-17637143D01*
X7204176Y-17838694D01*
X7207603Y-17846967D01*
X7206884Y-17851006D01*
X6690818Y-19253861D01*
X6684745Y-19260443D01*
X6675798Y-19260803D01*
X6675371Y-19260636D01*
X5905105Y-18942562D01*
X5898767Y-18936238D01*
X5580683Y-18165948D01*
X5580692Y-18156993D01*
X5587031Y-18150668D01*
X5587444Y-18150506D01*
X6990315Y-17634435D01*
X6999260Y-17634795D01*
G37*
%TD.AperFunction*%
%TD*%
%TA.AperFunction,Conductor*%
%TO.N,/CH343_VIO*%
G36*
X19684823Y-12129607D02*
G01*
X19690151Y-12135444D01*
X19819119Y-12444493D01*
X19819142Y-12453448D01*
X19819119Y-12453505D01*
X19690138Y-12762585D01*
X19683789Y-12768900D01*
X19675931Y-12769271D01*
X19128490Y-12602525D01*
X19121574Y-12596837D01*
X19120199Y-12591333D01*
X19120199Y-12308637D01*
X19123626Y-12300364D01*
X19128452Y-12297456D01*
X19675909Y-12128769D01*
X19684823Y-12129607D01*
G37*
%TD.AperFunction*%
%TD*%
%TA.AperFunction,Conductor*%
%TO.N,/CH343_DSR*%
G36*
X19156852Y-13597378D02*
G01*
X19163666Y-13603187D01*
X19164946Y-13608508D01*
X19164946Y-13791491D01*
X19161519Y-13799764D01*
X19156851Y-13802622D01*
X18770858Y-13927652D01*
X18761932Y-13926941D01*
X18756460Y-13921038D01*
X18665835Y-13704515D01*
X18665803Y-13695563D01*
X18756460Y-13478960D01*
X18762816Y-13472652D01*
X18770857Y-13472347D01*
X19156852Y-13597378D01*
G37*
%TD.AperFunction*%
%TD*%
%TA.AperFunction,Conductor*%
%TO.N,/CH343_DSR*%
G36*
X20432669Y-1009511D02*
G01*
X20438994Y-1015850D01*
X20439275Y-1016603D01*
X20806337Y-2113400D01*
X20920494Y-2454504D01*
X20919870Y-2463437D01*
X20917672Y-2466490D01*
X20786490Y-2597672D01*
X20778217Y-2601099D01*
X20774504Y-2600494D01*
X20364972Y-2463437D01*
X20110235Y-2378184D01*
X19336603Y-2119275D01*
X19329845Y-2113400D01*
X19329221Y-2104467D01*
X19329497Y-2103726D01*
X19647438Y-1333783D01*
X19653759Y-1327448D01*
X20423715Y-1009502D01*
X20432669Y-1009511D01*
G37*
%TD.AperFunction*%
%TD*%
%TA.AperFunction,Conductor*%
%TO.N,/CH343_RTS*%
G36*
X23028073Y-1329985D02*
G01*
X23036340Y-1333422D01*
X23039757Y-1341699D01*
X23039755Y-1341924D01*
X23011555Y-2719759D01*
X23007959Y-2727961D01*
X22999857Y-2731220D01*
X22814792Y-2731220D01*
X22808411Y-2729327D01*
X21872864Y-2120597D01*
X21867799Y-2113212D01*
X21868434Y-2106317D01*
X22187006Y-1336235D01*
X22193335Y-1329902D01*
X22197829Y-1329009D01*
X23028073Y-1329985D01*
G37*
%TD.AperFunction*%
%TD*%
%TA.AperFunction,Conductor*%
%TO.N,/CH343_RTS*%
G36*
X21667019Y-14164912D02*
G01*
X21796407Y-14294300D01*
X21799834Y-14302573D01*
X21798554Y-14307894D01*
X21614026Y-14669243D01*
X21607211Y-14675053D01*
X21599169Y-14674748D01*
X21381982Y-14585723D01*
X21375628Y-14579415D01*
X21286571Y-14362148D01*
X21286604Y-14353196D01*
X21292073Y-14347295D01*
X21653426Y-14162764D01*
X21662351Y-14162054D01*
X21667019Y-14164912D01*
G37*
%TD.AperFunction*%
%TD*%
%TA.AperFunction,Conductor*%
%TO.N,/CH343_CTS*%
G36*
X19162959Y-12896377D02*
G01*
X19169773Y-12902186D01*
X19171053Y-12907507D01*
X19171053Y-13090490D01*
X19167626Y-13098763D01*
X19162958Y-13101621D01*
X18776965Y-13226651D01*
X18768039Y-13225940D01*
X18762567Y-13220037D01*
X18671942Y-13003514D01*
X18671910Y-12994562D01*
X18762567Y-12777959D01*
X18768923Y-12771651D01*
X18776964Y-12771346D01*
X19162959Y-12896377D01*
G37*
%TD.AperFunction*%
%TD*%
%TA.AperFunction,Conductor*%
%TO.N,/CH343_CTS*%
G36*
X17892669Y-1009511D02*
G01*
X17898994Y-1015850D01*
X17899275Y-1016603D01*
X18266337Y-2113400D01*
X18380494Y-2454504D01*
X18379870Y-2463437D01*
X18377672Y-2466490D01*
X18246490Y-2597672D01*
X18238217Y-2601099D01*
X18234504Y-2600494D01*
X17824972Y-2463437D01*
X17570235Y-2378184D01*
X16796603Y-2119275D01*
X16789845Y-2113400D01*
X16789221Y-2104467D01*
X16789497Y-2103726D01*
X17107438Y-1333783D01*
X17113759Y-1327448D01*
X17883715Y-1009502D01*
X17892669Y-1009511D01*
G37*
%TD.AperFunction*%
%TD*%
%TA.AperFunction,Conductor*%
%TO.N,/CH343_USB_Data_N*%
G36*
X2791038Y-9491514D02*
G01*
X2797347Y-9497870D01*
X2797652Y-9505912D01*
X2672622Y-9891905D01*
X2666812Y-9898720D01*
X2661491Y-9900000D01*
X2478509Y-9900000D01*
X2470236Y-9896573D01*
X2467378Y-9891905D01*
X2342347Y-9505912D01*
X2343058Y-9496986D01*
X2348960Y-9491514D01*
X2565484Y-9400889D01*
X2574437Y-9400857D01*
X2791038Y-9491514D01*
G37*
%TD.AperFunction*%
%TD*%
%TA.AperFunction,Conductor*%
%TO.N,/CH343_USB_Data_N*%
G36*
X2669764Y-9903427D02*
G01*
X2672622Y-9908095D01*
X2797652Y-10294087D01*
X2796941Y-10303013D01*
X2791038Y-10308485D01*
X2574517Y-10399109D01*
X2565563Y-10399142D01*
X2565483Y-10399109D01*
X2348961Y-10308485D01*
X2342652Y-10302129D01*
X2342347Y-10294088D01*
X2467378Y-9908095D01*
X2473188Y-9901280D01*
X2478509Y-9900000D01*
X2661491Y-9900000D01*
X2669764Y-9903427D01*
G37*
%TD.AperFunction*%
%TD*%
%TA.AperFunction,Conductor*%
%TO.N,/CH343_RI*%
G36*
X18031906Y-11007378D02*
G01*
X18038720Y-11013187D01*
X18040000Y-11018508D01*
X18040000Y-11201491D01*
X18036573Y-11209764D01*
X18031905Y-11212622D01*
X17645912Y-11337652D01*
X17636986Y-11336941D01*
X17631514Y-11331038D01*
X17540889Y-11114515D01*
X17540857Y-11105563D01*
X17631514Y-10888960D01*
X17637870Y-10882652D01*
X17645911Y-10882347D01*
X18031906Y-11007378D01*
G37*
%TD.AperFunction*%
%TD*%
%TA.AperFunction,Conductor*%
%TO.N,/CH343_RI*%
G36*
X15417902Y-982492D02*
G01*
X15424228Y-988830D01*
X15424323Y-989067D01*
X16088994Y-2703219D01*
X16088790Y-2712172D01*
X16086358Y-2715722D01*
X15955722Y-2846358D01*
X15947449Y-2849785D01*
X15943220Y-2848994D01*
X14229068Y-2184323D01*
X14222593Y-2178137D01*
X14222389Y-2169184D01*
X14222484Y-2168947D01*
X14567438Y-1333782D01*
X14573761Y-1327447D01*
X15408947Y-982483D01*
X15417902Y-982492D01*
G37*
%TD.AperFunction*%
%TD*%
M02*
